<?xml version="1.0" standalone="no"?>
<!DOCTYPE svg PUBLIC "-//W3C//DTD SVG 20010904//EN"
 "http://www.w3.org/TR/2001/REC-SVG-20010904/DTD/svg10.dtd">
<svg version="1.0" xmlns="http://www.w3.org/2000/svg"
 width="358.000000pt" height="358.000000pt" viewBox="0 0 358.000000 358.000000"
 preserveAspectRatio="xMidYMid meet">
<metadata>
Created by potrace 1.11, written by Peter Selinger 2001-2013
</metadata>
<g transform="translate(0.000000,358.000000) scale(0.100000,-0.100000)"
fill="#000000" stroke="none">
<path d="M1100 3295 c-56 -86 -100 -159 -96 -162 8 -9 636 -114 660 -111 13 2
-41 56 -185 183 -112 99 -220 195 -240 213 l-37 32 -102 -155z"/>
<path d="M2430 3444 c0 -4 10 -42 21 -85 l22 -78 181 6 c100 3 215 8 256 12
l75 6 -271 73 c-287 76 -284 75 -284 66z"/>
<path d="M803 3356 c-155 -44 -284 -84 -288 -87 -5 -6 377 -119 403 -119 9 0
148 196 196 278 12 20 -14 14 -311 -72z"/>
<path d="M2172 3263 c-106 -96 -191 -177 -189 -179 3 -3 416 173 425 180 3 3
-35 167 -40 171 -2 2 -90 -76 -196 -172z"/>
<path d="M2711 3228 c-124 -5 -226 -10 -228 -12 -2 -2 -2 -98 -1 -214 l3 -211
304 220 c167 120 307 221 309 224 7 6 -100 4 -387 -7z"/>
<path d="M347 3139 c-26 -50 -46 -93 -44 -95 5 -5 443 64 467 73 13 4 -336
112 -365 112 -5 1 -32 -40 -58 -90z"/>
<path d="M2842 2977 c-183 -133 -328 -243 -321 -246 6 -2 183 -70 392 -152
210 -81 382 -147 384 -146 4 5 -112 787 -117 786 -3 0 -155 -109 -338 -242z"/>
<path d="M2148 3087 c-142 -62 -258 -115 -258 -118 0 -5 119 -50 433 -163 l97
-36 0 215 c0 118 -3 215 -7 215 -5 0 -124 -51 -265 -113z"/>
<path d="M3270 3075 c0 -37 83 -600 90 -608 4 -4 41 31 83 79 l76 86 -44 81
c-24 45 -80 150 -124 232 -45 83 -81 141 -81 130z"/>
<path d="M575 3021 c-239 -39 -290 -49 -287 -62 3 -22 173 -593 177 -597 2 -2
28 38 58 90 220 375 357 610 357 614 0 2 -3 3 -7 3 -5 -1 -138 -22 -298 -48z"/>
<path d="M737 2699 c-120 -204 -216 -373 -214 -375 2 -2 178 31 390 75 l387
79 0 -32 0 -32 -405 -81 c-223 -44 -407 -82 -410 -84 -3 -4 -65 -673 -62 -676
1 0 197 170 436 378 238 208 435 379 437 379 2 0 4 -15 4 -34 0 -32 -14 -47
-231 -236 -126 -111 -228 -204 -226 -206 2 -2 108 39 236 91 l233 95 106 -74
c59 -40 164 -112 234 -158 l127 -86 -147 -60 c-81 -33 -195 -79 -255 -102
l-107 -43 -45 29 c-25 16 -131 87 -235 158 -189 129 -189 129 -207 108 -10
-11 -79 -73 -153 -137 -74 -65 -139 -122 -145 -127 -7 -7 44 -8 148 -3 l157 7
0 -31 c0 -31 0 -31 -52 -31 -96 0 -128 -10 -170 -53 -43 -45 -48 -62 -15 -51
12 4 70 22 130 40 l107 32 0 -31 c0 -32 -1 -32 -98 -61 -166 -49 -159 -33 -56
-137 49 -50 133 -131 187 -181 l98 -91 80 62 79 62 25 -19 24 -19 -44 -33
c-25 -19 -44 -35 -42 -36 1 -1 35 4 75 13 70 14 73 14 107 -7 19 -12 35 -23
35 -24 0 -2 -64 -16 -142 -31 l-142 -28 284 -278 c157 -153 287 -278 290 -279
3 0 48 62 100 137 92 134 96 137 132 139 26 0 35 -3 29 -10 -4 -6 -56 -79
-114 -162 l-105 -152 97 -96 c53 -53 101 -96 106 -96 6 0 62 53 126 118 l116
117 22 195 c12 107 25 198 29 201 4 3 19 10 33 16 l25 11 -18 -152 c-10 -83
-17 -161 -16 -173 3 -19 30 4 165 138 l162 161 -70 95 c-67 90 -70 96 -67 143
l3 49 89 -124 90 -123 263 255 c145 141 261 258 259 260 -2 3 -157 -25 -344
-61 -187 -36 -345 -66 -351 -66 -6 0 -11 13 -11 28 l0 29 223 43 c122 23 282
54 356 69 l135 27 -178 79 -177 80 38 16 c42 17 34 20 307 -105 43 -20 84 -36
90 -36 13 0 131 208 122 217 -5 5 -361 62 -393 63 -8 0 -13 13 -13 30 0 17 3
30 8 30 4 0 105 -15 225 -33 l218 -33 99 173 99 173 -69 162 c-43 103 -73 162
-81 160 -7 -2 -122 -52 -256 -111 -161 -72 -243 -104 -243 -95 0 8 -3 14 -6
14 -3 0 -116 -45 -250 -100 -135 -55 -247 -100 -250 -100 -8 0 -4 536 5 546
12 13 83 185 78 190 -6 7 -267 -59 -267 -67 0 -4 36 -30 80 -59 45 -29 77 -56
73 -61 -10 -9 -473 -199 -487 -199 -18 0 -466 304 -458 311 4 4 70 32 148 63
l140 57 63 106 c34 58 59 109 54 113 -7 6 -742 131 -768 130 -6 0 -108 -167
-228 -371z"/>
<path d="M1796 2907 c-56 -93 -77 -130 -73 -134 3 -2 27 3 54 13 l49 17 109
-73 109 -73 136 33 c74 18 139 36 143 40 4 4 -81 40 -190 80 -109 40 -226 83
-261 96 l-62 23 -14 -22z"/>
<path d="M218 2888 c-28 -43 -139 -270 -136 -278 4 -11 300 -241 305 -237 2 3
-129 468 -150 530 -1 5 -10 -1 -19 -15z"/>
<path d="M2413 2563 c-38 -88 -48 -121 -39 -130 21 -21 379 -266 391 -267 14
-1 485 206 485 214 0 5 -727 286 -766 296 -19 5 -27 -7 -71 -113z"/>
<path d="M73 2498 c3 -18 14 -131 23 -250 10 -120 20 -218 24 -218 7 0 274
230 278 240 3 8 -312 260 -324 260 -4 0 -4 -15 -1 -32z"/>
<path d="M3440 2453 c-36 -41 -64 -79 -62 -86 5 -20 85 -212 92 -220 3 -4 14
79 24 183 10 105 17 192 15 194 -2 2 -33 -30 -69 -71z"/>
<path d="M266 2074 c-126 -109 -134 -118 -123 -139 33 -60 212 -333 216 -330
8 9 57 585 50 585 -5 0 -69 -52 -143 -116z"/>
<path d="M478 1471 l-37 -6 31 -49 30 -50 15 28 c8 15 28 40 45 56 l31 30 -39
-1 c-21 -1 -56 -5 -76 -8z"/>
</g>
</svg>
